# xmcd
#
# Track frame offsets: 
#        150
#        4996
#        21445
#        39795
#        54454
#        69818
#        82006
#        96851
#        114445
#        129008
#        144671
#        159529
#        176351
#        194737
#        213026
#        228040
#        243323
#        252080
#        261696
#        276672
#        292012
#        306301
#
# Disc length: 4228 seconds
#
# Revision: 1
# Processed by: cddbd v1.5.2PL0 Copyright (c) Steve Scherf et al.
# Submitted via: ExactAudioCopy v0.95a5
#
DISCID=3a108216
DTITLE=Let's Jam - Jazz and Blues
DYEAR=2002
DGENRE=Jazz
TTITLE0=Tuning
TTITLE1=Things in G
TTITLE2=6/8 Blues in D
TTITLE3=Roadhouse in A
TTITLE4=New Orleans March in F
TTITLE5=Gospel Blues in C
TTITLE6=Rock'n Blues in G
TTITLE7=Em7 A13
TTITLE8=Cm Groove
TTITLE9=Bb Static Dominant
TTITLE10=Static E Major
TTITLE11=Gm Groove
TTITLE12=Static Bb Major
TTITLE13=2m 5 1 in C
TTITLE14=2m 5 1 in Ab
TTITLE15=2m 5 1m in Bm
TTITLE16=4 beat 2m 5 1 Exercise
TTITLE17=2 beat 2m 5 1 Exercise
TTITLE18=Autumn
TTITLE19=Say What
TTITLE20=Changes Slow
TTITLE21=Changes Fast
EXTD=YEAR: 2002
EXTT0=
EXTT1=
EXTT2=
EXTT3=
EXTT4=
EXTT5=
EXTT6=
EXTT7=
EXTT8=
EXTT9=
EXTT10=
EXTT11=
EXTT12=
EXTT13=
EXTT14=
EXTT15=
EXTT16=
EXTT17=
EXTT18=
EXTT19=
EXTT20=
EXTT21=
PLAYORDER=
